<?xml version="1.0" encoding="UTF-8"?>
<!DOCTYPE svg PUBLIC "-//W3C//DTD SVG 1.1//EN" "http://www.w3.org/Graphics/SVG/1.1/DTD/svg11.dtd">
<svg xmlns="http://www.w3.org/2000/svg" xmlns:xlink="http://www.w3.org/1999/xlink" version="1.1" width="157px" height="291px" viewBox="-0.5 -0.5 157 291"><defs/><g><path d="M 29.5 -9 Q 127.44 -9 127.44 57.09 Q 127.44 123.19 29.5 123.19 Z" fill="#6e6bd6" stroke="#6e6bd6" stroke-width="3" stroke-miterlimit="10" transform="rotate(-90,78.47,57.1)" pointer-events="none"/><path d="M 77.51 286.46 Q 59.9 268.85 77.51 260.05 Q 95.11 251.24 77.51 242.44 Q 59.9 233.64 77.51 224.84 Q 95.11 216.03 77.51 207.23 Q 59.9 198.43 77.51 189.62 Q 95.11 180.82 77.51 172.02 Q 59.9 163.22 77.51 154.41 Q 95.11 145.61 77.51 128" fill="none" stroke="#323254" stroke-width="8" stroke-miterlimit="10" pointer-events="none"/><path d="M 7.5 110 Q 7.5 64 17.5 44 Q 27.5 24 52.71 14 Q 77.93 4 102.71 14 Q 127.5 24 137.5 44 Q 147.5 64 148.35 109.63" fill="none" stroke="#323254" stroke-width="15" stroke-miterlimit="10" pointer-events="none"/><path d="M 7.5 108 Q 17.5 98 22.5 108 Q 27.5 118 32.5 108 Q 37.5 98 42.5 108 Q 47.5 118 52.5 108 Q 57.5 98 62.5 108 Q 67.5 118 72.5 108 Q 77.5 98 82.5 108 Q 87.5 118 92.5 108 Q 97.5 98 102.5 108 Q 107.5 118 112.5 108 Q 117.5 98 122.5 108 Q 127.5 118 132.5 108 Q 137.5 98 147.5 108" fill="none" stroke="#323254" stroke-width="15" stroke-miterlimit="10" pointer-events="none"/><ellipse cx="7.5" cy="108.5" rx="0.5" ry="0.5" fill="#323254" stroke="#323254" stroke-width="15" pointer-events="none"/><ellipse cx="148.3" cy="108.5" rx="0.5" ry="0.5" fill="#323254" stroke="#323254" stroke-width="15" pointer-events="none"/><path d="M 117.25 253 Q 98.5 235 117.25 226 Q 136 217 117.25 208 Q 98.5 199 117.25 190 Q 136 181 117.25 172 Q 98.5 163 117.25 154 Q 136 145 117.25 127" fill="none" stroke="#323254" stroke-width="8" stroke-miterlimit="10" pointer-events="none"/><path d="M 40.25 253 Q 21.5 235 40.25 226 Q 59 217 40.25 208 Q 21.5 199 40.25 190 Q 59 181 40.25 172 Q 21.5 163 40.25 154 Q 59 145 40.25 127" fill="none" stroke="#323254" stroke-width="8" stroke-miterlimit="10" pointer-events="none"/><path d="M 127.5 73 Q 127.5 38 87.5 26" fill="none" stroke="#323254" stroke-width="8" stroke-miterlimit="10" pointer-events="none"/></g></svg>